# xmcd
#
# Track frame offsets:
#	150
#	21526
#	42242
#	63190
#	84317
#	101842
#	123820
#	149939
#	166017
#	184475
#	207470
#	228121
#	247221
#
# Disc length: 3550 seconds
#
# Revision: 1
# Processed by: cddbd v1.5.1PL2 Copyright (c) Steve Scherf et al.
# Submitted via: audiograbber 1.83.01
#
DISCID=bc0ddc0d
DTITLE=Lucinda Williams - World without tears
DYEAR=1900
DGENRE=
TTITLE0=Fruits of My Labor
TTITLE1=Righteously
TTITLE2=Ventura
TTITLE3=Real Live Bleeding Fingers and Broken Guitar Strings
TTITLE4=Over Time 
TTITLE5=Those Three Days
TTITLE6=Atonement 
TTITLE7=Sweet Side
TTITLE8=Minneapolis
TTITLE9=People Talkin' 
TTITLE10=American Dream
TTITLE11=World Without Tears
TTITLE12=Words Fell
EXTD=
EXTT0=
EXTT1=
EXTT2=
EXTT3=
EXTT4=
EXTT5=
EXTT6=
EXTT7=
EXTT8=
EXTT9=
EXTT10=
EXTT11=
EXTT12=
PLAYORDER=
